# xmcd CD database file
#
# Track frame offsets:
#	150
#	14581
#	28983
#	43549
#	58052
#	74889
#	91684
#	109351
#	127436
#	141516
#	155542
#	168377
#	181336
#	197787
#	214196
#	229051
#
# Disc length: 3249 seconds
#
# Revision: 0
# Processed by: cddbd v1.5.2PL0 Copyright (c) Steve Scherf et al.
# Submitted via: CDex 1.70beta2
#
DISCID=fc0caf10
DTITLE=Arturo Himmer - Clarinet Plus Vol.2
DYEAR=2004
DGENRE=Playalong
TTITLE0=Stranger On The Shore
TTITLE1=Stranger On The Shore MMO
TTITLE2=Bei mir bist du schön
TTITLE3=Bei mir bist du schön MMO
TTITLE4=Alexander's Ragtime Band
TTITLE5=Alexander's Ragtime Band MMO
TTITLE6=Memories Of You
TTITLE7=Memories Of You MMO
TTITLE8=Klarinettenmuckl
TTITLE9=Klarinettenmuckl MMO
TTITLE10=Creole Jazz
TTITLE11=Creole Jazz MMO
TTITLE12=Moonglow
TTITLE13=Moonglow MMO
TTITLE14=Sing, Sing Sing
TTITLE15=Sing, Sing Sing MMO
EXTD=YEAR: 2004
EXTT0=
EXTT1=
EXTT2=
EXTT3=
EXTT4=
EXTT5=
EXTT6=
EXTT7=
EXTT8=
EXTT9=
EXTT10=
EXTT11=
EXTT12=
EXTT13=
EXTT14=
EXTT15=
PLAYORDER=
